solid OpenSCAD_Model
  facet normal -0 0 1
    outer loop
      vertex 20.5 -41.25 2
      vertex 37.5 -46.25 2
      vertex 37.5 -41.25 2
    endloop
  endfacet
  facet normal 0 0 1
    outer loop
      vertex 37.5 -46.25 2
      vertex 20.5 -41.25 2
      vertex 20.5 -46.25 2
    endloop
  endfacet
  facet normal -0 0 1
    outer loop
      vertex 20.5 2.5 2
      vertex 37.5 -2.5 2
      vertex 37.5 2.5 2
    endloop
  endfacet
  facet normal 0 0 1
    outer loop
      vertex 37.5 -2.5 2
      vertex 20.5 2.5 2
      vertex 20.5 -2.5 2
    endloop
  endfacet
  facet normal -0 0 1
    outer loop
      vertex 20.5 46.25 2
      vertex 37.5 41.25 2
      vertex 37.5 46.25 2
    endloop
  endfacet
  facet normal 0 0 1
    outer loop
      vertex 37.5 41.25 2
      vertex 20.5 46.25 2
      vertex 20.5 41.25 2
    endloop
  endfacet
  facet normal 0 0 1
    outer loop
      vertex 37.5 46.25 2
      vertex 42.5 90 2
      vertex 37.5 85 2
    endloop
  endfacet
  facet normal -0 0 1
    outer loop
      vertex 20.5 90 2
      vertex 37.5 85 2
      vertex 42.5 90 2
    endloop
  endfacet
  facet normal 0 0 1
    outer loop
      vertex 37.5 85 2
      vertex 20.5 90 2
      vertex 20.5 85 2
    endloop
  endfacet
  facet normal 0 0 1
    outer loop
      vertex 37.5 41.25 2
      vertex 42.5 90 2
      vertex 37.5 46.25 2
    endloop
  endfacet
  facet normal 0 0 1
    outer loop
      vertex 37.5 2.5 2
      vertex 42.5 90 2
      vertex 37.5 41.25 2
    endloop
  endfacet
  facet normal 0 0 1
    outer loop
      vertex 42.5 90 2
      vertex 37.5 2.5 2
      vertex 42.5 -90 2
    endloop
  endfacet
  facet normal -0 0 1
    outer loop
      vertex 37.5 -2.5 2
      vertex 42.5 -90 2
      vertex 37.5 2.5 2
    endloop
  endfacet
  facet normal -0 0 1
    outer loop
      vertex 37.5 -41.25 2
      vertex 42.5 -90 2
      vertex 37.5 -2.5 2
    endloop
  endfacet
  facet normal -0 0 1
    outer loop
      vertex 37.5 -46.25 2
      vertex 42.5 -90 2
      vertex 37.5 -41.25 2
    endloop
  endfacet
  facet normal -0 0 1
    outer loop
      vertex 37.5 -85 2
      vertex 42.5 -90 2
      vertex 37.5 -46.25 2
    endloop
  endfacet
  facet normal 0 0 1
    outer loop
      vertex 20.5 -90 2
      vertex 37.5 -85 2
      vertex 20.5 -85 2
    endloop
  endfacet
  facet normal 0 0 1
    outer loop
      vertex 37.5 -85 2
      vertex 20.5 -90 2
      vertex 42.5 -90 2
    endloop
  endfacet
  facet normal 0 0 1
    outer loop
      vertex -20.5 90 2
      vertex -37.5 85 2
      vertex -20.5 85 2
    endloop
  endfacet
  facet normal 0 0 1
    outer loop
      vertex -42.5 90 2
      vertex -37.5 46.25 2
      vertex -37.5 85 2
    endloop
  endfacet
  facet normal 0 0 1
    outer loop
      vertex -37.5 46.25 2
      vertex -42.5 90 2
      vertex -37.5 41.25 2
    endloop
  endfacet
  facet normal 0 0 1
    outer loop
      vertex -37.5 41.25 2
      vertex -42.5 90 2
      vertex -37.5 2.5 2
    endloop
  endfacet
  facet normal 0 0 1
    outer loop
      vertex -37.5 2.5 2
      vertex -42.5 90 2
      vertex -37.5 -2.5 2
    endloop
  endfacet
  facet normal 0 0 1
    outer loop
      vertex -42.5 -90 2
      vertex -37.5 -2.5 2
      vertex -42.5 90 2
    endloop
  endfacet
  facet normal 0 0 1
    outer loop
      vertex -37.5 -2.5 2
      vertex -42.5 -90 2
      vertex -37.5 -41.25 2
    endloop
  endfacet
  facet normal 0 0 1
    outer loop
      vertex -37.5 -41.25 2
      vertex -42.5 -90 2
      vertex -37.5 -46.25 2
    endloop
  endfacet
  facet normal -0 0 1
    outer loop
      vertex -42.5 90 2
      vertex -37.5 85 2
      vertex -20.5 90 2
    endloop
  endfacet
  facet normal -0 0 1
    outer loop
      vertex -37.5 46.25 2
      vertex -20.5 41.25 2
      vertex -20.5 46.25 2
    endloop
  endfacet
  facet normal 0 0 1
    outer loop
      vertex -20.5 41.25 2
      vertex -37.5 46.25 2
      vertex -37.5 41.25 2
    endloop
  endfacet
  facet normal -0 0 1
    outer loop
      vertex -37.5 2.5 2
      vertex -20.5 -2.5 2
      vertex -20.5 2.5 2
    endloop
  endfacet
  facet normal 0 0 1
    outer loop
      vertex -20.5 -2.5 2
      vertex -37.5 2.5 2
      vertex -37.5 -2.5 2
    endloop
  endfacet
  facet normal -0 0 1
    outer loop
      vertex -37.5 -41.25 2
      vertex -20.5 -46.25 2
      vertex -20.5 -41.25 2
    endloop
  endfacet
  facet normal 0 0 1
    outer loop
      vertex -20.5 -46.25 2
      vertex -37.5 -41.25 2
      vertex -37.5 -46.25 2
    endloop
  endfacet
  facet normal -0 0 1
    outer loop
      vertex -37.5 -85 2
      vertex -20.5 -90 2
      vertex -20.5 -85 2
    endloop
  endfacet
  facet normal 0 0 1
    outer loop
      vertex -37.5 -85 2
      vertex -42.5 -90 2
      vertex -20.5 -90 2
    endloop
  endfacet
  facet normal 0 0 1
    outer loop
      vertex -37.5 -46.25 2
      vertex -42.5 -90 2
      vertex -37.5 -85 2
    endloop
  endfacet
  facet normal -0 0 1
    outer loop
      vertex -17.5 90 2
      vertex 17.5 85 2
      vertex 17.5 90 2
    endloop
  endfacet
  facet normal 0 0 1
    outer loop
      vertex 17.5 85 2
      vertex -17.5 90 2
      vertex -17.5 85 2
    endloop
  endfacet
  facet normal -0 0 1
    outer loop
      vertex -17.5 -85 2
      vertex 17.5 -90 2
      vertex 17.5 -85 2
    endloop
  endfacet
  facet normal 0 0 1
    outer loop
      vertex 17.5 -90 2
      vertex -17.5 -85 2
      vertex -17.5 -90 2
    endloop
  endfacet
  facet normal -0 0 1
    outer loop
      vertex -17.5 46.25 2
      vertex 17.5 41.25 2
      vertex 17.5 46.25 2
    endloop
  endfacet
  facet normal 0 0 1
    outer loop
      vertex 17.5 41.25 2
      vertex -17.5 46.25 2
      vertex -17.5 41.25 2
    endloop
  endfacet
  facet normal -0 0 1
    outer loop
      vertex -17.5 2.5 2
      vertex 17.5 -2.5 2
      vertex 17.5 2.5 2
    endloop
  endfacet
  facet normal 0 0 1
    outer loop
      vertex 17.5 -2.5 2
      vertex -17.5 2.5 2
      vertex -17.5 -2.5 2
    endloop
  endfacet
  facet normal -0 0 1
    outer loop
      vertex -17.5 -41.25 2
      vertex 17.5 -46.25 2
      vertex 17.5 -41.25 2
    endloop
  endfacet
  facet normal 0 0 1
    outer loop
      vertex 17.5 -46.25 2
      vertex -17.5 -41.25 2
      vertex -17.5 -46.25 2
    endloop
  endfacet
  facet normal 0 0 -1
    outer loop
      vertex -37.5 41.25 0
      vertex -20.5 46.25 0
      vertex -20.5 41.25 0
    endloop
  endfacet
  facet normal -0 0 -1
    outer loop
      vertex -20.5 46.25 0
      vertex -37.5 41.25 0
      vertex -37.5 46.25 0
    endloop
  endfacet
  facet normal 0 0 -1
    outer loop
      vertex -37.5 -2.5 0
      vertex -20.5 2.5 0
      vertex -20.5 -2.5 0
    endloop
  endfacet
  facet normal -0 0 -1
    outer loop
      vertex -20.5 2.5 0
      vertex -37.5 -2.5 0
      vertex -37.5 2.5 0
    endloop
  endfacet
  facet normal 0 0 -1
    outer loop
      vertex -37.5 -46.25 0
      vertex -20.5 -41.25 0
      vertex -20.5 -46.25 0
    endloop
  endfacet
  facet normal -0 0 -1
    outer loop
      vertex -20.5 -41.25 0
      vertex -37.5 -46.25 0
      vertex -37.5 -41.25 0
    endloop
  endfacet
  facet normal 0 0 -1
    outer loop
      vertex -17.5 41.25 0
      vertex 17.5 46.25 0
      vertex 17.5 41.25 0
    endloop
  endfacet
  facet normal -0 0 -1
    outer loop
      vertex 17.5 46.25 0
      vertex -17.5 41.25 0
      vertex -17.5 46.25 0
    endloop
  endfacet
  facet normal 0 0 -1
    outer loop
      vertex -17.5 -2.5 0
      vertex 17.5 2.5 0
      vertex 17.5 -2.5 0
    endloop
  endfacet
  facet normal -0 0 -1
    outer loop
      vertex 17.5 2.5 0
      vertex -17.5 -2.5 0
      vertex -17.5 2.5 0
    endloop
  endfacet
  facet normal 0 0 -1
    outer loop
      vertex -17.5 -46.25 0
      vertex 17.5 -41.25 0
      vertex 17.5 -46.25 0
    endloop
  endfacet
  facet normal -0 0 -1
    outer loop
      vertex 17.5 -41.25 0
      vertex -17.5 -46.25 0
      vertex -17.5 -41.25 0
    endloop
  endfacet
  facet normal 0 0 -1
    outer loop
      vertex 20.5 41.25 0
      vertex 37.5 46.25 0
      vertex 37.5 41.25 0
    endloop
  endfacet
  facet normal -0 0 -1
    outer loop
      vertex 37.5 46.25 0
      vertex 20.5 41.25 0
      vertex 20.5 46.25 0
    endloop
  endfacet
  facet normal 0 0 -1
    outer loop
      vertex 20.5 -2.5 0
      vertex 37.5 2.5 0
      vertex 37.5 -2.5 0
    endloop
  endfacet
  facet normal -0 0 -1
    outer loop
      vertex 37.5 2.5 0
      vertex 20.5 -2.5 0
      vertex 20.5 2.5 0
    endloop
  endfacet
  facet normal 0 0 -1
    outer loop
      vertex 20.5 -46.25 0
      vertex 37.5 -41.25 0
      vertex 37.5 -46.25 0
    endloop
  endfacet
  facet normal -0 0 -1
    outer loop
      vertex 37.5 -41.25 0
      vertex 20.5 -46.25 0
      vertex 20.5 -41.25 0
    endloop
  endfacet
  facet normal 0 0 -1
    outer loop
      vertex 37.5 -46.25 0
      vertex 42.5 -90 0
      vertex 37.5 -85 0
    endloop
  endfacet
  facet normal 0 0 -1
    outer loop
      vertex 42.5 -90 0
      vertex 20.5 -85 0
      vertex 37.5 -85 0
    endloop
  endfacet
  facet normal 0 0 -1
    outer loop
      vertex 17.5 -46.25 0
      vertex 20.5 -46.25 0
      vertex 20.5 -85 0
    endloop
  endfacet
  facet normal 0 0 -1
    outer loop
      vertex 20.5 -46.25 0
      vertex 17.5 -46.25 0
      vertex 20.5 -41.25 0
    endloop
  endfacet
  facet normal 0 0 -1
    outer loop
      vertex 20.5 -41.25 0
      vertex 17.5 -41.25 0
      vertex 20.5 -2.5 0
    endloop
  endfacet
  facet normal 0 0 -1
    outer loop
      vertex 17.5 -2.5 0
      vertex 20.5 -2.5 0
      vertex 17.5 -41.25 0
    endloop
  endfacet
  facet normal 0 0 -1
    outer loop
      vertex 17.5 2.5 0
      vertex 20.5 2.5 0
      vertex 17.5 -2.5 0
    endloop
  endfacet
  facet normal 0 0 -1
    outer loop
      vertex 20.5 2.5 0
      vertex 17.5 2.5 0
      vertex 20.5 41.25 0
    endloop
  endfacet
  facet normal 0 0 -1
    outer loop
      vertex 17.5 -46.25 0
      vertex 20.5 -85 0
      vertex 17.5 -85 0
    endloop
  endfacet
  facet normal 0 0 -1
    outer loop
      vertex 42.5 -90 0
      vertex 17.5 -85 0
      vertex 20.5 -85 0
    endloop
  endfacet
  facet normal 0 0 -1
    outer loop
      vertex 42.5 -90 0
      vertex -17.5 -85 0
      vertex 17.5 -85 0
    endloop
  endfacet
  facet normal 0 0 -1
    outer loop
      vertex -20.5 -46.25 0
      vertex -17.5 -46.25 0
      vertex -17.5 -85 0
    endloop
  endfacet
  facet normal 0 0 -1
    outer loop
      vertex -17.5 -46.25 0
      vertex -20.5 -46.25 0
      vertex -17.5 -41.25 0
    endloop
  endfacet
  facet normal 0 0 -1
    outer loop
      vertex -17.5 -41.25 0
      vertex -20.5 -41.25 0
      vertex -17.5 -2.5 0
    endloop
  endfacet
  facet normal 0 0 -1
    outer loop
      vertex -20.5 -2.5 0
      vertex -17.5 -2.5 0
      vertex -20.5 -41.25 0
    endloop
  endfacet
  facet normal 0 0 -1
    outer loop
      vertex -20.5 2.5 0
      vertex -17.5 2.5 0
      vertex -20.5 -2.5 0
    endloop
  endfacet
  facet normal 0 0 -1
    outer loop
      vertex -17.5 2.5 0
      vertex -20.5 2.5 0
      vertex -17.5 41.25 0
    endloop
  endfacet
  facet normal 0 0 -1
    outer loop
      vertex -20.5 -46.25 0
      vertex -17.5 -85 0
      vertex -20.5 -85 0
    endloop
  endfacet
  facet normal 0 0 -1
    outer loop
      vertex -42.5 -90 0
      vertex -17.5 -85 0
      vertex 42.5 -90 0
    endloop
  endfacet
  facet normal -0 0 -1
    outer loop
      vertex -17.5 -85 0
      vertex -42.5 -90 0
      vertex -20.5 -85 0
    endloop
  endfacet
  facet normal 0 0 -1
    outer loop
      vertex -42.5 -90 0
      vertex -37.5 -46.25 0
      vertex -37.5 -85 0
    endloop
  endfacet
  facet normal -0 0 -1
    outer loop
      vertex -37.5 -46.25 0
      vertex -42.5 -90 0
      vertex -37.5 -41.25 0
    endloop
  endfacet
  facet normal -0 0 -1
    outer loop
      vertex -37.5 -41.25 0
      vertex -42.5 -90 0
      vertex -37.5 -2.5 0
    endloop
  endfacet
  facet normal -0 0 -1
    outer loop
      vertex -37.5 -2.5 0
      vertex -42.5 -90 0
      vertex -37.5 2.5 0
    endloop
  endfacet
  facet normal 0 0 -1
    outer loop
      vertex -42.5 90 0
      vertex -37.5 2.5 0
      vertex -42.5 -90 0
    endloop
  endfacet
  facet normal 0 0 -1
    outer loop
      vertex -37.5 2.5 0
      vertex -42.5 90 0
      vertex -37.5 41.25 0
    endloop
  endfacet
  facet normal 0 0 -1
    outer loop
      vertex -37.5 41.25 0
      vertex -42.5 90 0
      vertex -37.5 46.25 0
    endloop
  endfacet
  facet normal -0 0 -1
    outer loop
      vertex -20.5 -85 0
      vertex -42.5 -90 0
      vertex -37.5 -85 0
    endloop
  endfacet
  facet normal 0 0 -1
    outer loop
      vertex 37.5 -41.25 0
      vertex 42.5 -90 0
      vertex 37.5 -46.25 0
    endloop
  endfacet
  facet normal 0 0 -1
    outer loop
      vertex 37.5 -2.5 0
      vertex 42.5 -90 0
      vertex 37.5 -41.25 0
    endloop
  endfacet
  facet normal 0 0 -1
    outer loop
      vertex 42.5 -90 0
      vertex 37.5 -2.5 0
      vertex 42.5 90 0
    endloop
  endfacet
  facet normal 0 0 -1
    outer loop
      vertex 37.5 2.5 0
      vertex 42.5 90 0
      vertex 37.5 -2.5 0
    endloop
  endfacet
  facet normal 0 0 -1
    outer loop
      vertex 37.5 41.25 0
      vertex 42.5 90 0
      vertex 37.5 2.5 0
    endloop
  endfacet
  facet normal 0 0 -1
    outer loop
      vertex 37.5 46.25 0
      vertex 42.5 90 0
      vertex 37.5 41.25 0
    endloop
  endfacet
  facet normal 0 0 -1
    outer loop
      vertex 37.5 85 0
      vertex 42.5 90 0
      vertex 37.5 46.25 0
    endloop
  endfacet
  facet normal 0 0 -1
    outer loop
      vertex 20.5 85 0
      vertex 42.5 90 0
      vertex 37.5 85 0
    endloop
  endfacet
  facet normal -0 0 -1
    outer loop
      vertex 20.5 -41.25 0
      vertex 17.5 -46.25 0
      vertex 17.5 -41.25 0
    endloop
  endfacet
  facet normal 0 0 -1
    outer loop
      vertex 20.5 -2.5 0
      vertex 17.5 -2.5 0
      vertex 20.5 2.5 0
    endloop
  endfacet
  facet normal 0 0 -1
    outer loop
      vertex 17.5 41.25 0
      vertex 20.5 41.25 0
      vertex 17.5 2.5 0
    endloop
  endfacet
  facet normal 0 0 -1
    outer loop
      vertex 20.5 41.25 0
      vertex 17.5 41.25 0
      vertex 20.5 46.25 0
    endloop
  endfacet
  facet normal 0 0 -1
    outer loop
      vertex 17.5 46.25 0
      vertex 20.5 46.25 0
      vertex 17.5 41.25 0
    endloop
  endfacet
  facet normal 0 0 -1
    outer loop
      vertex 20.5 46.25 0
      vertex 17.5 46.25 0
      vertex 20.5 85 0
    endloop
  endfacet
  facet normal 0 0 -1
    outer loop
      vertex 17.5 85 0
      vertex 20.5 85 0
      vertex 17.5 46.25 0
    endloop
  endfacet
  facet normal 0 0 -1
    outer loop
      vertex 17.5 85 0
      vertex 42.5 90 0
      vertex 20.5 85 0
    endloop
  endfacet
  facet normal 0 0 -1
    outer loop
      vertex -17.5 85 0
      vertex 42.5 90 0
      vertex 17.5 85 0
    endloop
  endfacet
  facet normal -0 0 -1
    outer loop
      vertex -17.5 -41.25 0
      vertex -20.5 -46.25 0
      vertex -20.5 -41.25 0
    endloop
  endfacet
  facet normal 0 0 -1
    outer loop
      vertex -17.5 -2.5 0
      vertex -20.5 -2.5 0
      vertex -17.5 2.5 0
    endloop
  endfacet
  facet normal 0 0 -1
    outer loop
      vertex -20.5 41.25 0
      vertex -17.5 41.25 0
      vertex -20.5 2.5 0
    endloop
  endfacet
  facet normal 0 0 -1
    outer loop
      vertex -17.5 41.25 0
      vertex -20.5 41.25 0
      vertex -17.5 46.25 0
    endloop
  endfacet
  facet normal 0 0 -1
    outer loop
      vertex -20.5 46.25 0
      vertex -17.5 46.25 0
      vertex -20.5 41.25 0
    endloop
  endfacet
  facet normal 0 0 -1
    outer loop
      vertex -17.5 46.25 0
      vertex -20.5 46.25 0
      vertex -17.5 85 0
    endloop
  endfacet
  facet normal 0 0 -1
    outer loop
      vertex -20.5 85 0
      vertex -17.5 85 0
      vertex -20.5 46.25 0
    endloop
  endfacet
  facet normal 0 0 -1
    outer loop
      vertex -42.5 90 0
      vertex -17.5 85 0
      vertex -20.5 85 0
    endloop
  endfacet
  facet normal 0 0 -1
    outer loop
      vertex -42.5 90 0
      vertex -20.5 85 0
      vertex -37.5 85 0
    endloop
  endfacet
  facet normal 0 0 -1
    outer loop
      vertex -17.5 85 0
      vertex -42.5 90 0
      vertex 42.5 90 0
    endloop
  endfacet
  facet normal 0 0 -1
    outer loop
      vertex -37.5 46.25 0
      vertex -42.5 90 0
      vertex -37.5 85 0
    endloop
  endfacet
  facet normal 0 -1 0
    outer loop
      vertex -42.5 -90 0
      vertex -20.5 -90 2
      vertex -42.5 -90 2
    endloop
  endfacet
  facet normal 0 -1 -0
    outer loop
      vertex -20.5 -90 2
      vertex -42.5 -90 0
      vertex -17.5 -90 2
    endloop
  endfacet
  facet normal 0 -1 -0
    outer loop
      vertex -17.5 -90 2
      vertex -42.5 -90 0
      vertex 17.5 -90 2
    endloop
  endfacet
  facet normal 0 -1 0
    outer loop
      vertex 42.5 -90 0
      vertex 17.5 -90 2
      vertex -42.5 -90 0
    endloop
  endfacet
  facet normal 0 -1 0
    outer loop
      vertex 17.5 -90 2
      vertex 42.5 -90 0
      vertex 20.5 -90 2
    endloop
  endfacet
  facet normal 0 -1 0
    outer loop
      vertex 20.5 -90 2
      vertex 42.5 -90 0
      vertex 42.5 -90 2
    endloop
  endfacet
  facet normal 0 -1 0
    outer loop
      vertex -20.5 -90 2
      vertex -17.5 -90 14
      vertex -20.5 -90 14
    endloop
  endfacet
  facet normal 0 -1 -0
    outer loop
      vertex -17.5 -90 14
      vertex -20.5 -90 2
      vertex -17.5 -90 2
    endloop
  endfacet
  facet normal 0 -1 0
    outer loop
      vertex 17.5 -90 2
      vertex 20.5 -90 14
      vertex 17.5 -90 14
    endloop
  endfacet
  facet normal 0 -1 -0
    outer loop
      vertex 20.5 -90 14
      vertex 17.5 -90 2
      vertex 20.5 -90 2
    endloop
  endfacet
  facet normal 0 1 -0
    outer loop
      vertex -20.5 -85 0
      vertex -37.5 -85 2
      vertex -20.5 -85 2
    endloop
  endfacet
  facet normal 0 1 0
    outer loop
      vertex -37.5 -85 2
      vertex -20.5 -85 0
      vertex -37.5 -85 0
    endloop
  endfacet
  facet normal 0 1 -0
    outer loop
      vertex 37.5 -85 0
      vertex 20.5 -85 2
      vertex 37.5 -85 2
    endloop
  endfacet
  facet normal 0 1 0
    outer loop
      vertex 20.5 -85 2
      vertex 37.5 -85 0
      vertex 20.5 -85 0
    endloop
  endfacet
  facet normal 0 1 -0
    outer loop
      vertex 17.5 -85 0
      vertex -17.5 -85 2
      vertex 17.5 -85 2
    endloop
  endfacet
  facet normal 0 1 0
    outer loop
      vertex -17.5 -85 2
      vertex 17.5 -85 0
      vertex -17.5 -85 0
    endloop
  endfacet
  facet normal 0 1 -0
    outer loop
      vertex -20.5 -41.25 0
      vertex -37.5 -41.25 2
      vertex -20.5 -41.25 2
    endloop
  endfacet
  facet normal 0 1 0
    outer loop
      vertex -37.5 -41.25 2
      vertex -20.5 -41.25 0
      vertex -37.5 -41.25 0
    endloop
  endfacet
  facet normal 0 1 -0
    outer loop
      vertex 17.5 -41.25 0
      vertex -17.5 -41.25 2
      vertex 17.5 -41.25 2
    endloop
  endfacet
  facet normal 0 1 0
    outer loop
      vertex -17.5 -41.25 2
      vertex 17.5 -41.25 0
      vertex -17.5 -41.25 0
    endloop
  endfacet
  facet normal 0 1 -0
    outer loop
      vertex 37.5 -41.25 0
      vertex 20.5 -41.25 2
      vertex 37.5 -41.25 2
    endloop
  endfacet
  facet normal 0 1 0
    outer loop
      vertex 20.5 -41.25 2
      vertex 37.5 -41.25 0
      vertex 20.5 -41.25 0
    endloop
  endfacet
  facet normal 0 -1 0
    outer loop
      vertex -37.5 -46.25 0
      vertex -20.5 -46.25 2
      vertex -37.5 -46.25 2
    endloop
  endfacet
  facet normal 0 -1 -0
    outer loop
      vertex -20.5 -46.25 2
      vertex -37.5 -46.25 0
      vertex -20.5 -46.25 0
    endloop
  endfacet
  facet normal 0 -1 0
    outer loop
      vertex 20.5 -46.25 0
      vertex 37.5 -46.25 2
      vertex 20.5 -46.25 2
    endloop
  endfacet
  facet normal 0 -1 -0
    outer loop
      vertex 37.5 -46.25 2
      vertex 20.5 -46.25 0
      vertex 37.5 -46.25 0
    endloop
  endfacet
  facet normal 0 -1 0
    outer loop
      vertex -17.5 -46.25 0
      vertex 17.5 -46.25 2
      vertex -17.5 -46.25 2
    endloop
  endfacet
  facet normal 0 -1 -0
    outer loop
      vertex 17.5 -46.25 2
      vertex -17.5 -46.25 0
      vertex 17.5 -46.25 0
    endloop
  endfacet
  facet normal 0 1 -0
    outer loop
      vertex -20.5 2.5 0
      vertex -37.5 2.5 2
      vertex -20.5 2.5 2
    endloop
  endfacet
  facet normal 0 1 0
    outer loop
      vertex -37.5 2.5 2
      vertex -20.5 2.5 0
      vertex -37.5 2.5 0
    endloop
  endfacet
  facet normal 0 1 -0
    outer loop
      vertex 37.5 2.5 0
      vertex 20.5 2.5 2
      vertex 37.5 2.5 2
    endloop
  endfacet
  facet normal 0 1 0
    outer loop
      vertex 20.5 2.5 2
      vertex 37.5 2.5 0
      vertex 20.5 2.5 0
    endloop
  endfacet
  facet normal 0 1 -0
    outer loop
      vertex 17.5 2.5 0
      vertex -17.5 2.5 2
      vertex 17.5 2.5 2
    endloop
  endfacet
  facet normal 0 1 0
    outer loop
      vertex -17.5 2.5 2
      vertex 17.5 2.5 0
      vertex -17.5 2.5 0
    endloop
  endfacet
  facet normal 0 -1 0
    outer loop
      vertex -37.5 -2.5 0
      vertex -20.5 -2.5 2
      vertex -37.5 -2.5 2
    endloop
  endfacet
  facet normal 0 -1 -0
    outer loop
      vertex -20.5 -2.5 2
      vertex -37.5 -2.5 0
      vertex -20.5 -2.5 0
    endloop
  endfacet
  facet normal 0 -1 0
    outer loop
      vertex -17.5 -2.5 0
      vertex 17.5 -2.5 2
      vertex -17.5 -2.5 2
    endloop
  endfacet
  facet normal 0 -1 -0
    outer loop
      vertex 17.5 -2.5 2
      vertex -17.5 -2.5 0
      vertex 17.5 -2.5 0
    endloop
  endfacet
  facet normal 0 -1 0
    outer loop
      vertex 20.5 -2.5 0
      vertex 37.5 -2.5 2
      vertex 20.5 -2.5 2
    endloop
  endfacet
  facet normal 0 -1 -0
    outer loop
      vertex 37.5 -2.5 2
      vertex 20.5 -2.5 0
      vertex 37.5 -2.5 0
    endloop
  endfacet
  facet normal 0 1 -0
    outer loop
      vertex -20.5 46.25 0
      vertex -37.5 46.25 2
      vertex -20.5 46.25 2
    endloop
  endfacet
  facet normal 0 1 0
    outer loop
      vertex -37.5 46.25 2
      vertex -20.5 46.25 0
      vertex -37.5 46.25 0
    endloop
  endfacet
  facet normal 0 1 -0
    outer loop
      vertex 17.5 46.25 0
      vertex -17.5 46.25 2
      vertex 17.5 46.25 2
    endloop
  endfacet
  facet normal 0 1 0
    outer loop
      vertex -17.5 46.25 2
      vertex 17.5 46.25 0
      vertex -17.5 46.25 0
    endloop
  endfacet
  facet normal 0 1 -0
    outer loop
      vertex 37.5 46.25 0
      vertex 20.5 46.25 2
      vertex 37.5 46.25 2
    endloop
  endfacet
  facet normal 0 1 0
    outer loop
      vertex 20.5 46.25 2
      vertex 37.5 46.25 0
      vertex 20.5 46.25 0
    endloop
  endfacet
  facet normal 0 -1 0
    outer loop
      vertex -37.5 41.25 0
      vertex -20.5 41.25 2
      vertex -37.5 41.25 2
    endloop
  endfacet
  facet normal 0 -1 -0
    outer loop
      vertex -20.5 41.25 2
      vertex -37.5 41.25 0
      vertex -20.5 41.25 0
    endloop
  endfacet
  facet normal 0 -1 0
    outer loop
      vertex 20.5 41.25 0
      vertex 37.5 41.25 2
      vertex 20.5 41.25 2
    endloop
  endfacet
  facet normal 0 -1 -0
    outer loop
      vertex 37.5 41.25 2
      vertex 20.5 41.25 0
      vertex 37.5 41.25 0
    endloop
  endfacet
  facet normal 0 -1 0
    outer loop
      vertex -17.5 41.25 0
      vertex 17.5 41.25 2
      vertex -17.5 41.25 2
    endloop
  endfacet
  facet normal 0 -1 -0
    outer loop
      vertex 17.5 41.25 2
      vertex -17.5 41.25 0
      vertex 17.5 41.25 0
    endloop
  endfacet
  facet normal 0 1 -0
    outer loop
      vertex 42.5 90 0
      vertex 20.5 90 2
      vertex 42.5 90 2
    endloop
  endfacet
  facet normal 0 1 0
    outer loop
      vertex 20.5 90 2
      vertex 42.5 90 0
      vertex 17.5 90 2
    endloop
  endfacet
  facet normal 0 1 0
    outer loop
      vertex 17.5 90 2
      vertex 42.5 90 0
      vertex -17.5 90 2
    endloop
  endfacet
  facet normal 0 1 0
    outer loop
      vertex -42.5 90 0
      vertex -17.5 90 2
      vertex 42.5 90 0
    endloop
  endfacet
  facet normal 0 1 0
    outer loop
      vertex -17.5 90 2
      vertex -42.5 90 0
      vertex -20.5 90 2
    endloop
  endfacet
  facet normal 0 1 0
    outer loop
      vertex -20.5 90 2
      vertex -42.5 90 0
      vertex -42.5 90 2
    endloop
  endfacet
  facet normal 0 1 -0
    outer loop
      vertex 20.5 90 2
      vertex 17.5 90 14
      vertex 20.5 90 14
    endloop
  endfacet
  facet normal 0 1 0
    outer loop
      vertex 17.5 90 14
      vertex 20.5 90 2
      vertex 17.5 90 2
    endloop
  endfacet
  facet normal 0 1 -0
    outer loop
      vertex -17.5 90 2
      vertex -20.5 90 14
      vertex -17.5 90 14
    endloop
  endfacet
  facet normal 0 1 0
    outer loop
      vertex -20.5 90 14
      vertex -17.5 90 2
      vertex -20.5 90 2
    endloop
  endfacet
  facet normal 0 -1 0
    outer loop
      vertex -37.5 85 0
      vertex -20.5 85 2
      vertex -37.5 85 2
    endloop
  endfacet
  facet normal 0 -1 -0
    outer loop
      vertex -20.5 85 2
      vertex -37.5 85 0
      vertex -20.5 85 0
    endloop
  endfacet
  facet normal 0 -1 0
    outer loop
      vertex 20.5 85 0
      vertex 37.5 85 2
      vertex 20.5 85 2
    endloop
  endfacet
  facet normal 0 -1 -0
    outer loop
      vertex 37.5 85 2
      vertex 20.5 85 0
      vertex 37.5 85 0
    endloop
  endfacet
  facet normal 0 -1 0
    outer loop
      vertex -17.5 85 0
      vertex 17.5 85 2
      vertex -17.5 85 2
    endloop
  endfacet
  facet normal 0 -1 -0
    outer loop
      vertex 17.5 85 2
      vertex -17.5 85 0
      vertex 17.5 85 0
    endloop
  endfacet
  facet normal -1 0 0
    outer loop
      vertex -42.5 -90 0
      vertex -42.5 90 2
      vertex -42.5 90 0
    endloop
  endfacet
  facet normal -1 -0 0
    outer loop
      vertex -42.5 90 2
      vertex -42.5 -90 0
      vertex -42.5 -90 2
    endloop
  endfacet
  facet normal 1 -0 0
    outer loop
      vertex -37.5 46.25 2
      vertex -37.5 85 0
      vertex -37.5 85 2
    endloop
  endfacet
  facet normal 1 0 0
    outer loop
      vertex -37.5 85 0
      vertex -37.5 46.25 2
      vertex -37.5 46.25 0
    endloop
  endfacet
  facet normal 1 -0 0
    outer loop
      vertex -37.5 2.5 2
      vertex -37.5 41.25 0
      vertex -37.5 41.25 2
    endloop
  endfacet
  facet normal 1 0 0
    outer loop
      vertex -37.5 41.25 0
      vertex -37.5 2.5 2
      vertex -37.5 2.5 0
    endloop
  endfacet
  facet normal 1 -0 0
    outer loop
      vertex -37.5 -41.25 2
      vertex -37.5 -2.5 0
      vertex -37.5 -2.5 2
    endloop
  endfacet
  facet normal 1 0 0
    outer loop
      vertex -37.5 -2.5 0
      vertex -37.5 -41.25 2
      vertex -37.5 -41.25 0
    endloop
  endfacet
  facet normal 1 -0 0
    outer loop
      vertex -37.5 -85 2
      vertex -37.5 -46.25 0
      vertex -37.5 -46.25 2
    endloop
  endfacet
  facet normal 1 0 0
    outer loop
      vertex -37.5 -46.25 0
      vertex -37.5 -85 2
      vertex -37.5 -85 0
    endloop
  endfacet
  facet normal -1 0 0
    outer loop
      vertex 37.5 46.25 0
      vertex 37.5 85 2
      vertex 37.5 85 0
    endloop
  endfacet
  facet normal -1 -0 0
    outer loop
      vertex 37.5 85 2
      vertex 37.5 46.25 0
      vertex 37.5 46.25 2
    endloop
  endfacet
  facet normal -1 0 0
    outer loop
      vertex 37.5 2.5 0
      vertex 37.5 41.25 2
      vertex 37.5 41.25 0
    endloop
  endfacet
  facet normal -1 -0 0
    outer loop
      vertex 37.5 41.25 2
      vertex 37.5 2.5 0
      vertex 37.5 2.5 2
    endloop
  endfacet
  facet normal -1 0 0
    outer loop
      vertex 37.5 -41.25 0
      vertex 37.5 -2.5 2
      vertex 37.5 -2.5 0
    endloop
  endfacet
  facet normal -1 -0 0
    outer loop
      vertex 37.5 -2.5 2
      vertex 37.5 -41.25 0
      vertex 37.5 -41.25 2
    endloop
  endfacet
  facet normal -1 0 0
    outer loop
      vertex 37.5 -85 0
      vertex 37.5 -46.25 2
      vertex 37.5 -46.25 0
    endloop
  endfacet
  facet normal -1 -0 0
    outer loop
      vertex 37.5 -46.25 2
      vertex 37.5 -85 0
      vertex 37.5 -85 2
    endloop
  endfacet
  facet normal 1 -0 0
    outer loop
      vertex 42.5 -90 2
      vertex 42.5 90 0
      vertex 42.5 90 2
    endloop
  endfacet
  facet normal 1 0 0
    outer loop
      vertex 42.5 90 0
      vertex 42.5 -90 2
      vertex 42.5 -90 0
    endloop
  endfacet
  facet normal -1 0 0
    outer loop
      vertex -20.5 -46.25 0
      vertex -20.5 -85 0
      vertex -20.5 -46.25 2
    endloop
  endfacet
  facet normal -1 0 0
    outer loop
      vertex -20.5 -2.5 0
      vertex -20.5 -41.25 0
      vertex -20.5 -2.5 2
    endloop
  endfacet
  facet normal -1 0 0
    outer loop
      vertex -20.5 41.25 0
      vertex -20.5 2.5 0
      vertex -20.5 41.25 2
    endloop
  endfacet
  facet normal -1 0 0
    outer loop
      vertex -20.5 85 0
      vertex -20.5 46.25 0
      vertex -20.5 85 2
    endloop
  endfacet
  facet normal -1 0 0
    outer loop
      vertex -20.5 85 2
      vertex -20.5 90 14
      vertex -20.5 90 2
    endloop
  endfacet
  facet normal -1 0 0
    outer loop
      vertex -20.5 46.25 2
      vertex -20.5 85 2
      vertex -20.5 46.25 0
    endloop
  endfacet
  facet normal -1 0 0
    outer loop
      vertex -20.5 85 2
      vertex -20.5 46.25 2
      vertex -20.5 90 14
    endloop
  endfacet
  facet normal -1 0 0
    outer loop
      vertex -20.5 41.25 2
      vertex -20.5 90 14
      vertex -20.5 46.25 2
    endloop
  endfacet
  facet normal -1 0 0
    outer loop
      vertex -20.5 2.5 2
      vertex -20.5 41.25 2
      vertex -20.5 2.5 0
    endloop
  endfacet
  facet normal -1 0 0
    outer loop
      vertex -20.5 41.25 2
      vertex -20.5 2.5 2
      vertex -20.5 90 14
    endloop
  endfacet
  facet normal -1 0 0
    outer loop
      vertex -20.5 -2.5 2
      vertex -20.5 90 14
      vertex -20.5 2.5 2
    endloop
  endfacet
  facet normal -1 0 0
    outer loop
      vertex -20.5 -41.25 2
      vertex -20.5 -2.5 2
      vertex -20.5 -41.25 0
    endloop
  endfacet
  facet normal -1 0 0
    outer loop
      vertex -20.5 -90 14
      vertex -20.5 -2.5 2
      vertex -20.5 -41.25 2
    endloop
  endfacet
  facet normal -1 0 0
    outer loop
      vertex -20.5 -90 14
      vertex -20.5 -41.25 2
      vertex -20.5 -46.25 2
    endloop
  endfacet
  facet normal -1 0 0
    outer loop
      vertex -20.5 -85 2
      vertex -20.5 -46.25 2
      vertex -20.5 -85 0
    endloop
  endfacet
  facet normal -1 0 0
    outer loop
      vertex -20.5 -90 14
      vertex -20.5 -46.25 2
      vertex -20.5 -85 2
    endloop
  endfacet
  facet normal -1 0 0
    outer loop
      vertex -20.5 -90 14
      vertex -20.5 -85 2
      vertex -20.5 -90 2
    endloop
  endfacet
  facet normal -1 0 0
    outer loop
      vertex -20.5 -2.5 2
      vertex -20.5 -90 14
      vertex -20.5 90 14
    endloop
  endfacet
  facet normal -0 0 1
    outer loop
      vertex -20.5 90 14
      vertex -17.5 -90 14
      vertex -17.5 90 14
    endloop
  endfacet
  facet normal 0 0 1
    outer loop
      vertex -17.5 -90 14
      vertex -20.5 90 14
      vertex -20.5 -90 14
    endloop
  endfacet
  facet normal 1 0 0
    outer loop
      vertex -17.5 90 14
      vertex -17.5 85 2
      vertex -17.5 90 2
    endloop
  endfacet
  facet normal 1 0 0
    outer loop
      vertex -17.5 85 2
      vertex -17.5 46.25 2
      vertex -17.5 85 0
    endloop
  endfacet
  facet normal 1 0 0
    outer loop
      vertex -17.5 90 14
      vertex -17.5 46.25 2
      vertex -17.5 85 2
    endloop
  endfacet
  facet normal 1 0 0
    outer loop
      vertex -17.5 90 14
      vertex -17.5 41.25 2
      vertex -17.5 46.25 2
    endloop
  endfacet
  facet normal 1 0 0
    outer loop
      vertex -17.5 41.25 2
      vertex -17.5 2.5 2
      vertex -17.5 41.25 0
    endloop
  endfacet
  facet normal 1 0 0
    outer loop
      vertex -17.5 90 14
      vertex -17.5 2.5 2
      vertex -17.5 41.25 2
    endloop
  endfacet
  facet normal 1 0 0
    outer loop
      vertex -17.5 90 14
      vertex -17.5 -2.5 2
      vertex -17.5 2.5 2
    endloop
  endfacet
  facet normal 1 0 0
    outer loop
      vertex -17.5 -2.5 2
      vertex -17.5 -41.25 2
      vertex -17.5 -2.5 0
    endloop
  endfacet
  facet normal 1 -0 0
    outer loop
      vertex -17.5 -90 14
      vertex -17.5 -2.5 2
      vertex -17.5 90 14
    endloop
  endfacet
  facet normal 1 0 0
    outer loop
      vertex -17.5 -2.5 2
      vertex -17.5 -90 14
      vertex -17.5 -41.25 2
    endloop
  endfacet
  facet normal 1 0 0
    outer loop
      vertex -17.5 -46.25 2
      vertex -17.5 -85 2
      vertex -17.5 -46.25 0
    endloop
  endfacet
  facet normal 1 0 0
    outer loop
      vertex -17.5 -41.25 2
      vertex -17.5 -90 14
      vertex -17.5 -46.25 2
    endloop
  endfacet
  facet normal 1 0 0
    outer loop
      vertex -17.5 -46.25 2
      vertex -17.5 -90 14
      vertex -17.5 -85 2
    endloop
  endfacet
  facet normal 1 0 0
    outer loop
      vertex -17.5 -85 2
      vertex -17.5 -90 14
      vertex -17.5 -90 2
    endloop
  endfacet
  facet normal 1 0 0
    outer loop
      vertex -17.5 85 0
      vertex -17.5 46.25 2
      vertex -17.5 46.25 0
    endloop
  endfacet
  facet normal 1 0 0
    outer loop
      vertex -17.5 41.25 0
      vertex -17.5 2.5 2
      vertex -17.5 2.5 0
    endloop
  endfacet
  facet normal 1 0 0
    outer loop
      vertex -17.5 -2.5 0
      vertex -17.5 -41.25 2
      vertex -17.5 -41.25 0
    endloop
  endfacet
  facet normal 1 0 0
    outer loop
      vertex -17.5 -46.25 0
      vertex -17.5 -85 2
      vertex -17.5 -85 0
    endloop
  endfacet
  facet normal -1 0 0
    outer loop
      vertex 17.5 -46.25 0
      vertex 17.5 -85 0
      vertex 17.5 -46.25 2
    endloop
  endfacet
  facet normal -1 0 0
    outer loop
      vertex 17.5 -2.5 0
      vertex 17.5 -41.25 0
      vertex 17.5 -2.5 2
    endloop
  endfacet
  facet normal -1 0 0
    outer loop
      vertex 17.5 41.25 0
      vertex 17.5 2.5 0
      vertex 17.5 41.25 2
    endloop
  endfacet
  facet normal -1 0 0
    outer loop
      vertex 17.5 85 0
      vertex 17.5 46.25 0
      vertex 17.5 85 2
    endloop
  endfacet
  facet normal -1 0 0
    outer loop
      vertex 17.5 85 2
      vertex 17.5 90 14
      vertex 17.5 90 2
    endloop
  endfacet
  facet normal -1 0 0
    outer loop
      vertex 17.5 46.25 2
      vertex 17.5 85 2
      vertex 17.5 46.25 0
    endloop
  endfacet
  facet normal -1 0 0
    outer loop
      vertex 17.5 85 2
      vertex 17.5 46.25 2
      vertex 17.5 90 14
    endloop
  endfacet
  facet normal -1 0 0
    outer loop
      vertex 17.5 41.25 2
      vertex 17.5 90 14
      vertex 17.5 46.25 2
    endloop
  endfacet
  facet normal -1 0 0
    outer loop
      vertex 17.5 2.5 2
      vertex 17.5 41.25 2
      vertex 17.5 2.5 0
    endloop
  endfacet
  facet normal -1 0 0
    outer loop
      vertex 17.5 41.25 2
      vertex 17.5 2.5 2
      vertex 17.5 90 14
    endloop
  endfacet
  facet normal -1 0 0
    outer loop
      vertex 17.5 -2.5 2
      vertex 17.5 90 14
      vertex 17.5 2.5 2
    endloop
  endfacet
  facet normal -1 0 0
    outer loop
      vertex 17.5 -41.25 2
      vertex 17.5 -2.5 2
      vertex 17.5 -41.25 0
    endloop
  endfacet
  facet normal -1 0 0
    outer loop
      vertex 17.5 -90 14
      vertex 17.5 -2.5 2
      vertex 17.5 -41.25 2
    endloop
  endfacet
  facet normal -1 0 0
    outer loop
      vertex 17.5 -90 14
      vertex 17.5 -41.25 2
      vertex 17.5 -46.25 2
    endloop
  endfacet
  facet normal -1 0 0
    outer loop
      vertex 17.5 -85 2
      vertex 17.5 -46.25 2
      vertex 17.5 -85 0
    endloop
  endfacet
  facet normal -1 0 0
    outer loop
      vertex 17.5 -90 14
      vertex 17.5 -46.25 2
      vertex 17.5 -85 2
    endloop
  endfacet
  facet normal -1 0 0
    outer loop
      vertex 17.5 -90 14
      vertex 17.5 -85 2
      vertex 17.5 -90 2
    endloop
  endfacet
  facet normal -1 0 0
    outer loop
      vertex 17.5 -2.5 2
      vertex 17.5 -90 14
      vertex 17.5 90 14
    endloop
  endfacet
  facet normal -0 0 1
    outer loop
      vertex 17.5 90 14
      vertex 20.5 -90 14
      vertex 20.5 90 14
    endloop
  endfacet
  facet normal 0 0 1
    outer loop
      vertex 20.5 -90 14
      vertex 17.5 90 14
      vertex 17.5 -90 14
    endloop
  endfacet
  facet normal 1 0 0
    outer loop
      vertex 20.5 90 14
      vertex 20.5 85 2
      vertex 20.5 90 2
    endloop
  endfacet
  facet normal 1 0 0
    outer loop
      vertex 20.5 85 2
      vertex 20.5 46.25 2
      vertex 20.5 85 0
    endloop
  endfacet
  facet normal 1 0 0
    outer loop
      vertex 20.5 90 14
      vertex 20.5 46.25 2
      vertex 20.5 85 2
    endloop
  endfacet
  facet normal 1 0 0
    outer loop
      vertex 20.5 90 14
      vertex 20.5 41.25 2
      vertex 20.5 46.25 2
    endloop
  endfacet
  facet normal 1 0 0
    outer loop
      vertex 20.5 41.25 2
      vertex 20.5 2.5 2
      vertex 20.5 41.25 0
    endloop
  endfacet
  facet normal 1 0 0
    outer loop
      vertex 20.5 90 14
      vertex 20.5 2.5 2
      vertex 20.5 41.25 2
    endloop
  endfacet
  facet normal 1 0 0
    outer loop
      vertex 20.5 90 14
      vertex 20.5 -2.5 2
      vertex 20.5 2.5 2
    endloop
  endfacet
  facet normal 1 0 0
    outer loop
      vertex 20.5 -2.5 2
      vertex 20.5 -41.25 2
      vertex 20.5 -2.5 0
    endloop
  endfacet
  facet normal 1 -0 0
    outer loop
      vertex 20.5 -90 14
      vertex 20.5 -2.5 2
      vertex 20.5 90 14
    endloop
  endfacet
  facet normal 1 0 0
    outer loop
      vertex 20.5 -2.5 2
      vertex 20.5 -90 14
      vertex 20.5 -41.25 2
    endloop
  endfacet
  facet normal 1 0 0
    outer loop
      vertex 20.5 -46.25 2
      vertex 20.5 -85 2
      vertex 20.5 -46.25 0
    endloop
  endfacet
  facet normal 1 0 0
    outer loop
      vertex 20.5 -41.25 2
      vertex 20.5 -90 14
      vertex 20.5 -46.25 2
    endloop
  endfacet
  facet normal 1 0 0
    outer loop
      vertex 20.5 -46.25 2
      vertex 20.5 -90 14
      vertex 20.5 -85 2
    endloop
  endfacet
  facet normal 1 0 0
    outer loop
      vertex 20.5 -85 2
      vertex 20.5 -90 14
      vertex 20.5 -90 2
    endloop
  endfacet
  facet normal 1 0 0
    outer loop
      vertex 20.5 85 0
      vertex 20.5 46.25 2
      vertex 20.5 46.25 0
    endloop
  endfacet
  facet normal 1 0 0
    outer loop
      vertex 20.5 41.25 0
      vertex 20.5 2.5 2
      vertex 20.5 2.5 0
    endloop
  endfacet
  facet normal 1 0 0
    outer loop
      vertex 20.5 -2.5 0
      vertex 20.5 -41.25 2
      vertex 20.5 -41.25 0
    endloop
  endfacet
  facet normal 1 0 0
    outer loop
      vertex 20.5 -46.25 0
      vertex 20.5 -85 2
      vertex 20.5 -85 0
    endloop
  endfacet
endsolid OpenSCAD_Model
